PathFileType	4	(X/Y/Z)	s04c0103.trc
DataRate	CameraRate	NumFrames	NumMarkers	Units	OrigDataRate	OrigDataStartFrame	OrigNumFrames
200	200	4	50	mm	200	500	2000
Frame#	Time	racr			lacr			c7			jug			rlel			rdr			llel			ldr			s2			lic			ric			lasi			rasi			rpsi			lpsi			rgt			lgt			rth1			rth2			rth3			rth4			rlfc			rmfc			rsh1			rsh2			rsh3			rsh4			rlmal			rmmal			rcal			rtoe			rmt5			lth1			lth2			lth4			lth3			llfc			lmfc			lsh1			lsh2			lsh3			lsh4			llmal			lmmal			lcal			ltoe			lmt5			SBIKE			LBIKE			RBIKE			
		X1	Y1	Z1	X2	Y2	Z2	X3	Y3	Z3	X4	Y4	Z4	X5	Y5	Z5	X6	Y6	Z6	X7	Y7	Z7	X8	Y8	Z8	X9	Y9	Z9	X10	Y10	Z10	X11	Y11	Z11	X12	Y12	Z12	X13	Y13	Z13	X14	Y14	Z14	X15	Y15	Z15	X16	Y16	Z16	X17	Y17	Z17	X18	Y18	Z18	X19	Y19	Z19	X20	Y20	Z20	X21	Y21	Z21	X22	Y22	Z22	X23	Y23	Z23	X24	Y24	Z24	X25	Y25	Z25	X26	Y26	Z26	X27	Y27	Z27	X28	Y28	Z28	X29	Y29	Z29	X30	Y30	Z30	X31	Y31	Z31	X32	Y32	Z32	X33	Y33	Z33	X34	Y34	Z34	X35	Y35	Z35	X36	Y36	Z36	X37	Y37	Z37	X38	Y38	Z38	X39	Y39	Z39	X40	Y40	Z40	X41	Y41	Z41	X42	Y42	Z42	X43	Y43	Z43	X44	Y44	Z44	X45	Y45	Z45	X46	Y46	Z46	X47	Y47	Z47	X48	Y48	Z48	X49	Y49	Z49	X50	Y50	Z50	
500	2.5000	483.255989	1382.207831	-152.299014	499.428681	1370.020900	-405.684128	467.777200	1427.013802	-287.544263	446.799784	1272.222124	-284.563214	446.009337	1086.433528	-13.018484	678.601859	925.970560	-108.000419	486.899197	1108.476255	-555.373961	689.966227	907.417102	-485.524677	-86.277565	1169.985478	-312.607011	79.007624	1175.003685	-458.967127	56.188537	1203.377410	-141.713561	119.077083	1132.089819	-408.226964	111.043316	1160.211257	-179.554103	-65.052494	1222.407206	-272.084852	-57.436840	1218.908022	-347.802936	17.734385	1147.011352	-120.307107	41.425231	1079.890225	-482.550448	150.248571	1048.345613	-109.047541	231.486053	1016.101189	-122.560025	286.652587	951.970404	-128.360460	249.403912	1045.001556	-139.456610	390.926342	851.848614	-153.461204	371.916587	825.001553	-264.960258	353.918742	731.986742	-122.319305	349.772241	641.373040	-134.026457	300.962534	570.608522	-135.550164	380.759281	635.127125	-157.050744	267.575647	422.294723	-133.365080	283.213028	428.817152	-219.550340	198.924428	381.052534	-167.623538	499.267905	396.697476	-165.493020	437.000584	366.852764	-107.945643	97.901129	1012.405728	-492.701924	172.249939	968.189754	-495.975896	196.985989	991.399589	-483.872663	216.168882	891.190643	-505.528752	298.694446	758.808863	-488.365789	327.247379	730.964025	-380.598189	239.640022	652.512062	-505.587321	201.917407	579.921164	-475.570932	128.753947	529.919603	-468.056611	225.049010	567.872622	-446.378300	29.656933	422.107992	-450.920267	30.271315	427.657932	-362.738838	-46.498333	447.879596	-404.524392	187.596343	250.505975	-415.546837	107.177024	267.137085	-473.251894	-185.459886	929.936571	-287.996350	-17.545901	79.001829	-485.636007	-17.569847	79.187378	-84.894083	
501	2.5050	483.930881	1382.103381	-151.786241	499.465396	1370.641243	-405.248714	468.448405	1427.402902	-286.920847	446.916790	1272.603533	-284.385726	446.025279	1086.471589	-12.783666	678.659672	926.093319	-107.935438	487.638605	1109.264125	-554.953271	690.188746	907.405795	-485.393873	-86.263419	1171.694310	-312.245264	79.031861	1176.577235	-458.270741	56.367564	1203.971233	-141.034654	118.858261	1133.311086	-407.374996	111.558763	1160.056444	-178.982835	-64.986697	1223.561527	-271.464207	-57.151853	1220.401278	-347.222769	17.508349	1147.189588	-120.215154	41.781744	1081.998505	-482.677577	149.017495	1046.727852	-108.380456	229.753658	1013.320932	-121.776160	283.897899	948.289430	-127.637377	248.174923	1041.964037	-138.477006	387.161437	846.747449	-152.453259	367.220157	819.429193	-263.948032	351.398162	726.195194	-121.335214	348.342876	635.535097	-133.170390	300.362424	564.239452	-134.775915	379.426191	629.775103	-156.270504	268.635101	415.428712	-132.678958	285.021304	422.436060	-218.680418	200.283423	374.236340	-166.979815	500.643676	389.762297	-165.620348	438.443557	359.834097	-107.869830	98.143419	1014.812862	-492.854426	172.801043	971.265950	-496.374546	197.442764	994.584593	-483.940408	217.378635	894.647263	-506.023539	300.746996	762.838030	-489.044336	329.555836	735.000180	-381.370108	241.140038	656.921729	-505.992359	202.801999	584.817265	-475.631359	129.236208	535.328384	-467.849754	225.774817	572.596933	-446.364120	28.912913	429.017581	-450.671385	30.441015	434.112083	-362.744223	-47.220402	455.134055	-404.410423	186.244314	257.111306	-415.657250	105.842831	274.024283	-473.279895	-185.375722	929.937788	-287.955683	-17.543211	79.021593	-485.632290	-17.552206	79.201332	-84.880420	
502	2.5100	484.680729	1381.998366	-151.242804	499.471132	1371.102307	-404.829738	469.032668	1427.635527	-286.441580	447.073704	1272.960281	-284.235821	446.154240	1086.480617	-12.429174	678.793003	926.137135	-107.840407	488.312688	1110.051255	-554.524006	690.365110	907.427950	-485.202813	-86.014977	1173.119381	-311.861367	79.113044	1178.312665	-457.627869	56.686537	1204.683838	-140.346155	119.271885	1135.584717	-407.487968	112.122411	1159.922301	-178.426826	-64.925529	1224.635036	-270.880111	-56.839292	1222.012492	-346.548719	17.396241	1147.321112	-120.101913	42.317052	1084.142735	-482.800156	147.819367	1044.893289	-107.477143	227.945654	1010.086178	-120.357398	281.372484	944.579897	-126.654460	247.060058	1039.091531	-137.472036	383.347129	841.475436	-151.514400	363.197478	814.031465	-262.907797	348.560251	720.293290	-120.173931	346.764403	629.635097	-132.308590	299.696212	557.801506	-134.021940	377.610045	624.111810	-155.630742	269.505016	408.625421	-132.067539	285.080345	414.906109	-218.788350	201.390618	367.555648	-166.249316	501.799434	382.540938	-165.687408	439.590393	352.703611	-107.600867	98.663159	1017.510769	-492.938574	173.663591	974.595023	-496.758821	198.249988	997.916805	-483.913320	218.902251	898.209427	-506.635539	302.950355	766.879911	-489.753353	333.005615	738.936145	-381.994168	242.755243	661.419778	-506.360730	203.758703	589.813458	-475.701283	129.783501	540.963969	-467.720418	226.955444	577.596283	-446.599129	28.455981	435.871813	-450.340383	29.947565	441.075633	-362.444825	-47.646048	462.366324	-404.028248	185.223261	263.755039	-415.684847	104.888653	280.952267	-473.261293	-185.336656	929.966250	-287.858675	-17.533857	79.025693	-485.616711	-17.540578	79.199924	-84.878451	
503	2.5150	485.448497	1381.806027	-150.648042	499.543527	1371.645978	-404.413421	469.682002	1427.957549	-285.786351	447.298392	1273.298693	-284.023989	446.471485	1086.476440	-11.957919	679.200652	926.305189	-107.743015	488.946089	1110.782902	-554.117662	690.543060	907.501024	-485.033366	-85.650813	1174.459890	-311.420484	79.190265	1180.204114	-457.056865	57.132221	1205.081696	-139.652176	119.424757	1137.178014	-407.112176	112.729717	1159.807246	-177.885630	-64.655702	1225.921450	-270.131113	-56.575683	1223.558924	-345.844676	17.463799	1147.364834	-119.936556	42.938277	1086.384356	-482.969787	146.680809	1043.265489	-106.948745	226.495374	1007.285186	-120.177480	278.772421	940.727802	-125.997972	245.826447	1035.698171	-136.401862	379.584008	836.180516	-150.649720	359.099597	808.618290	-261.917918	345.983252	714.361778	-119.236151	345.108469	623.745871	-131.558109	298.830519	551.390240	-133.244706	376.023535	618.574870	-154.967419	270.133423	401.851439	-131.434676	285.763318	408.309671	-218.121909	202.242018	360.911633	-165.560122	502.706389	375.300555	-165.805398	440.498745	345.311741	-107.775604	99.416974	1020.183197	-493.106685	174.716527	977.771913	-496.867300	198.933062	1001.281516	-483.938672	220.548404	901.972533	-507.196473	305.100308	771.080459	-490.395948	335.307177	743.201723	-382.821267	244.348043	666.117746	-506.822575	204.723573	594.960824	-475.799396	130.329850	546.954506	-467.720607	227.539422	582.675448	-446.426089	28.203742	442.911183	-449.996718	29.792726	448.098285	-362.102989	-47.811664	469.588453	-403.394065	184.449154	270.346787	-415.649868	104.161413	287.874931	-473.191086	-185.291105	929.988009	-287.719876	-17.519952	79.060118	-485.610343	-17.541644	79.199436	-84.867093	
